<svg xmlns="http://www.w3.org/2000/svg" viewBox="0 0 1622.86 264"><defs><style>.cls-1{fill:#1abaed;}.cls-2{fill:#2760aa;}</style></defs><title>logo-pro-blue</title><g id="Calque_2" data-name="Calque 2"><g id="Calque_1-2" data-name="Calque 1"><path class="cls-1" d="M24.61,236.28q-6-6.92-6-22.61V0H0V214q0,21.51,10.57,33.53t31.73,12h16V243.21H45.57q-14.95,0-21-6.93"/><rect class="cls-1" x="85.31" y="0.01" width="22.96" height="22.96"/><rect class="cls-1" x="87.51" y="83.87" width="18.6" height="175.75"/><path class="cls-1" d="M229.34,81.69q-16.4,0-28.8,5.28T177.2,106.48V0H158.6V259.62h18.6V237q10.95,14.22,23.34,19.51t28.8,5.27q27.71,0,43-15.31Q295,223.89,295,171.75T272.36,97q-15.29-15.31-43-15.31m47,90.06a179.45,179.45,0,0,1-1.82,27.35,94,94,0,0,1-6.74,23,36.1,36.1,0,0,1-15.32,17.32q-10.38,6-25.7,6t-25.71-6a36.11,36.11,0,0,1-15.32-17.32,93.36,93.36,0,0,1-6.74-23,178.59,178.59,0,0,1-1.83-27.35A178.59,178.59,0,0,1,179,144.4a93.6,93.6,0,0,1,6.74-23,36.13,36.13,0,0,1,15.32-17.32q10.39-6,25.71-6t25.7,6a36.13,36.13,0,0,1,15.32,17.32,94.2,94.2,0,0,1,6.74,23,179.45,179.45,0,0,1,1.82,27.35"/><path class="cls-1" d="M408,81.68q-32.09,0-51.79,23V0H337.64V259.62h18.59v-109q0-25.16,13-38.84t36.64-13.67q23.7,0,36.11,13.48t12.39,39v109h18.59V147.32q0-30.64-17.31-48.14T408,81.68"/><path class="cls-1" d="M583.76,81.67q-33.18,0-51.77,23.71t-18.6,66.36q0,44.12,19.14,67.09t55.61,23q20.79,0,35-6.38t28.44-20.59l-13.85-10.94q-11.31,11.29-22.25,16.23T589.23,245q-28.09,0-42.66-17.69T532,175.76H654.14v-8.39q0-40.47-18.61-63.07T583.76,81.67M532,160.8q1.08-19.31,6.19-33.18a46.62,46.62,0,0,1,18.06-21.69,52.24,52.24,0,0,1,55.06,0,46.67,46.67,0,0,1,18,21.69q4.74,10.6,6.2,33.18Z"/><path class="cls-1" d="M766.44,81.68a67.42,67.42,0,0,0-29.9,6.75A51.43,51.43,0,0,0,715,107.21V83.87h-18.6V259.62H715V151.34q0-22.26,12.58-37.75t34.46-15.5c7.28,0,13.31,1,18.05,2.91s9.77,5.6,15.13,10.95l13.49-13.48Q792,81.68,766.44,81.68"/><path class="cls-1" d="M1116.32,176.12q-13.32-9.86-38.11-12.41l-28.44-2.54c-12.39-1.22-21.46-4.13-27.16-8.75s-8.57-11.54-8.57-20.78q0-16.43,11.48-25.16t33.38-8.76q28.8,0,49.21,15l12.41-12.4q-25.15-18.59-61.62-18.59-28.82,0-45.95,13.49t-17.14,36.47q0,41.55,52.86,45.93l29.17,2.56q17.5,1.82,25.53,8.75t8,20.78q0,35.74-52.87,35.73-37.21,0-57.61-21.51l-12.77,12.76q26.25,25.15,71.11,25.16,32.45,0,51.41-14t19-38.11q0-23.71-13.31-33.54"/><path class="cls-1" d="M891.15,80.88a90.94,90.94,0,1,0,90.94,90.95,91,91,0,0,0-90.94-90.95m0,164.29a73.34,73.34,0,1,1,73.34-73.34,73.42,73.42,0,0,1-73.34,73.34"/><path class="cls-1" d="M938.38,196.44a5.09,5.09,0,0,0-6.94,2,46.13,46.13,0,0,1-80.58,0,5.1,5.1,0,1,0-8.92,5,56.34,56.34,0,0,0,98.41,0,5.1,5.1,0,0,0-2-6.93"/><path class="cls-2" d="M1316.59,104.64q15.59,15.6,15.59,38.5t-15.59,38.5q-15.6,15.6-41.66,15.59h-33.38v65.3h-33.87V89.05h67.25Q1301,89.05,1316.59,104.64Zm-25.1,55.68q6.82-6.45,6.82-17.18t-6.82-17.3q-6.82-6.58-18.27-6.58h-31.67v47.51h31.67Q1284.67,166.78,1291.49,160.32Z"/><path class="cls-2" d="M1482.27,262.53H1443l-33.87-69.2h-24.37v69.2h-33.87V89.05h68q25.83,0,41.06,15.35t15.23,37.77q0,17.3-9,29a48.84,48.84,0,0,1-22.66,16.57Zm-47.76-103.8q6.82-6.33,6.82-16.57t-6.82-16.57q-6.82-6.33-17.79-6.33h-31.92v45.81h31.92Q1427.69,165.07,1434.52,158.74Z"/><path class="cls-2" d="M1622.62,154.11q.24,6.82.24,21.69t-.24,21.69a162.66,162.66,0,0,1-1.71,16.93,52.2,52.2,0,0,1-5.24,17.18,57.07,57.07,0,0,1-10.11,13.4q-19,19-46.78,19-28,0-47-19a55.24,55.24,0,0,1-10-13.28,53.26,53.26,0,0,1-5.12-17.42q-1.46-10.47-1.71-16.81t-.24-21.69q0-15.35.24-21.69t1.71-16.81a53.28,53.28,0,0,1,5.12-17.42,55.29,55.29,0,0,1,10-13.28q19-19,47-19,27.78,0,46.78,19a57.2,57.2,0,0,1,10.11,13.4,52.26,52.26,0,0,1,5.24,17.18A162.88,162.88,0,0,1,1622.62,154.11Zm-35.33,55.43q1.7-9.38,1.71-33.75T1587.29,142q-1.71-9.38-6.82-15-8-9.26-21.69-9.26-13.89,0-21.93,9.26-5.12,5.61-6.7,14.86t-1.58,33.87q0,24.61,1.58,33.87t6.7,14.86q8,9.26,21.93,9.26,13.64,0,21.69-9.26Q1585.58,218.92,1587.29,209.54Z"/></g></g></svg>